<?xml version="1.0" encoding="utf-8"?>
<!-- Generator: Adobe Illustrator 21.1.0, SVG Export Plug-In . SVG Version: 6.00 Build 0)  -->
<svg version="1.1" id="圖層_1" xmlns="http://www.w3.org/2000/svg" xmlns:xlink="http://www.w3.org/1999/xlink" x="0px" y="0px"
	 viewBox="0 0 130.3 49.7" style="enable-background:new 0 0 130.3 49.7;" xml:space="preserve">
<style type="text/css">
	.st0{fill:#1A1A1A;}
</style>
<g>
	<path class="st0" d="M130.2,24.8c0-1.6-0.1-7.5-1-8.6c-0.3-0.3-0.6-0.5-1-0.6c-0.4-0.1-0.9-0.1-1.3-0.1c-2.4,0-4.9,0-7.3,0h-4.3
		c-0.2-1.5-0.6-2.9-1.1-4.3c-0.8-2.2-2-4.1-3.6-5.8c-1.7-1.7-3.7-3-5.9-3.9c-2.5-1-5.2-1.5-7.9-1.5c-1.3,0-2.6,0.1-3.9,0.3
		c-1.5,0.2-3,0.5-4.5,0.9c-1.3,0.4-2.5,0.9-3.7,1.6c-0.9,0.4-1.5,1.3-1.6,2.3c0,0.6,0.3,1.2,0.7,1.6c0.5,0.5,1.2,0.7,1.9,0.7
		c0.3,0,0.6,0,0.9-0.2c0.3-0.1,0.6-0.2,0.9-0.3c-0.3,0.1,0,5.6,0,6.2v3.5c-0.8-0.5-1.6-0.9-2.4-1.2c-1-0.4-2.1-0.6-3.1-0.6
		s-2.1,0.2-3.1,0.5c-1,0.4-1.9,0.8-2.8,1.5c-1.7,1.2-3.1,2.9-3.9,4.9c-0.3,0.8-0.5,1.6-0.7,2.4c-0.1,0.8-0.2,1.6-0.2,2.4
		c0,1.4,0.3,2.8,0.9,4.1c0.2,0.5,0.4,1.1,0.7,1.6c-0.2,0.2-0.4,0.4-0.6,0.6c-0.7,0.7-1.7,1.1-2.8,1.2c-1.2,0-2.3-0.7-2.9-1.7
		c-0.3-0.6-0.6-1.2-0.8-1.8c-0.1-0.8-0.2-1.6-0.3-2.4c-0.1-0.9-0.1-1.9-0.1-2.8c0-0.7,0-1.3,0-2s0.1-1.3,0.1-1.8
		c0.1-0.9,0.2-2.8,0.2-3.5s-0.2-1.4-0.7-1.8c-0.5-0.4-1-0.6-1.6-0.6c-0.7,0-1.3,0.2-1.7,0.8c-0.4,0.6-0.7,1.3-0.9,2
		c-0.2,1.3-0.3,2.5-0.3,3.8c0,1,0,2,0,3c0,0.6,0,1.2,0,1.8h-0.1c0,0.9,0,1.7,0.1,2.5c0,0.3,0.1,0.5,0.1,0.8
		c-0.7,0.9-1.5,1.7-2.4,2.5c-0.7,0.7-1.7,1.1-2.8,1.2c-1.2,0-2.3-0.7-2.9-1.7c-0.1-0.2-0.2-0.4-0.3-0.6c-0.1-0.4-0.2-0.9-0.3-1.4
		c-0.2-0.9-0.3-1.9-0.3-2.9c-0.1-1-0.1-2-0.1-3c0-0.2,0-0.4,0-0.6V23c0-0.3,0-0.7,0-1c0-0.6,0.1-1.2,0.1-1.7
		c0.1-0.9,0.2-1.7,0.2-2.6c0.1-0.8-0.2-1.5-0.8-2c-0.5-0.4-1.1-0.7-1.8-0.7c-0.7,0-1.4,0.3-1.9,0.8c-0.5,0.7-0.8,1.4-0.9,2.2
		c-0.2,1-0.3,2-0.3,3c0,1.1,0,2.2,0,3.2c0,2.8,0.7,9.1-3.8,9.2c-4,0.1-4.4-4.8-4.4-7.8c0-6.6,0.2-13.3,0.2-20
		c0.1-1.2-0.2-2.3-0.8-3.3c-0.3-0.6-1-1-1.7-1.1c-0.7,0-1.5,0.4-1.9,0.9c-0.7,1-1.1,2.2-0.9,3.5v12.7H19.6v-6.9l0,0
		c-0.1-1.4-0.4-2.7-0.9-4c-0.7-1.6-2-3-3.5-4c-0.7-0.5-1.5-0.9-2.3-1.2s-1.6-0.6-2.4-0.7c-0.4-0.1-0.8-0.1-1.2-0.1
		c-0.9,0-1.9,0.2-2.7,0.5C5.7,2.2,4.9,2.7,4.1,3.2C2.6,4.3,1.4,5.8,0.8,7.6c-0.3,1-0.5,1.9-0.5,2.9c-0.1,1-0.1,2.2-0.1,3.3V16
		c0,0.7,0-3.7,0-3s0.1,1.1,0.1,1.7s0,1.1,0,1.5c0.1,0.6,0.4,1.2,0.9,1.6c0.5,0.3,1,0.5,1.6,0.5c0.5,0,1.1-0.2,1.5-0.5
		c0.5-0.4,0.9-0.9,1-1.5V14c0-0.8,0-1.5,0-2.2s-0.1,3.6-0.1,2.8s0-1.5,0-2.4c-0.1-1.6,0.2-3.2,1-4.6c1.4-2.3,4.3-1.8,6.1-0.2
		c2.4,2.1,2,5.1,2,8v19.1c-0.1,1.1,0.2,2.2,0.8,3.1c0.4,0.6,1,1,1.7,1s1.4-0.3,1.9-0.9c0.7-0.9,1.1-2.1,0.9-3.2v-11h13
		c0,1,0,2.7,0,3.3c0.1,2.3,0.6,4.5,1.6,6.6c1.3,2.7,3.8,4.5,6.7,5c3,0.5,5-0.7,7-2.8l0.6-0.4c0.5,0.6,1.1,1.1,1.7,1.6
		c0.8,0.6,1.6,1,2.5,1.3s1.8,0.5,2.7,0.5c1.3,0,2.5-0.3,3.6-0.9c1.1-0.5,2.1-1.2,3-2l0.5-0.3c0.5,0.6,1,1.1,1.6,1.5
		c0.8,0.6,1.6,1,2.5,1.3s1.8,0.5,2.7,0.5c1.2,0,2.4-0.3,3.5-0.9c1-0.5,1.9-1.1,2.8-1.8c0.5,0.4,1,0.7,1.5,1c1.3,0.7,2.8,1,4.2,1
		c0.5,0,1.1,0,1.6-0.1s1.2-0.2,2-0.4l2-0.7v2.8c0.1,1.4-0.3,2.9-1.3,4c-0.8,0.9-2.2,1.4-4.2,1.4c-2.1-0.1-4-0.8-5.7-2
		c-0.9-0.4-1.8-0.3-2.7,0.2c-0.6,0.4-1,1-1,1.7c0.1,1,0.7,1.9,1.5,2.4c1,0.6,2,1.1,3.1,1.5c1.2,0.4,2.4,0.6,3.6,0.7c1,0.1,2,0.1,3,0
		c0.8-0.1,1.7-0.3,2.5-0.6c0.7-0.3,1.5-0.7,2.2-1.1c1.4-0.8,2.6-2.1,3.3-3.6c0.6-1.5,0.9-3.1,0.9-4.7V19.7l0,0
		c0.2-0.2,0.1-1,0.1-1.3c0-1.5,0-3.1,0-4.6c0-0.6-0.2-8.3,0-8.3c0.7-0.1,1.4-0.2,2.1-0.3s1.4-0.1,2.1-0.1c2,0,4,0.3,5.9,1
		c1.6,0.6,3.1,1.6,4.3,2.8c1.1,1.1,2,2.5,2.6,4c1,2.5,0.7,4.4,1.3,7c0.1,0.5,4.8,0.2,8.7,0.1c-0.6,1.9,0.4,3.9,2.3,4.5
		c1.1,0.4,2.3,0.2,3.3-0.5c0,0.2,0,0.5,0,0.8c0,2.5-0.3,4.9-1,7.3c-2.6,7.8-10.2,7.9-15.1,7.8v-8.6c0.1-1.1-0.2-2.2-0.7-3.1
		c-0.4-0.6-1-1-1.7-1s-1.4,0.3-2,0.9c-1.5,1.5-1,9.8-1.1,11.8c-0.1,1.6-0.2,4.2,1.5,5c0.6,0.2,1.2,0.3,1.9,0.2
		c3.2-0.1,9.1-0.2,12.1-1.4c2.1-0.8,4.1-2,5.8-3.6c1.7-1.7,3-3.7,3.9-5.9C129.9,31.1,130.4,28,130.2,24.8z M82.3,33.4
		c-0.8,0-1.5-0.2-2.3-0.5c-0.7-0.3-1.4-0.8-1.9-1.4c-0.6-0.6-1-1.4-1.3-2.2c-0.3-0.9-0.5-1.9-0.5-3c0-0.7,0.1-1.3,0.2-2
		c0.1-0.8,0.4-1.6,0.9-2.4c0.5-0.8,1.1-1.5,1.9-1.9c1-0.6,2.2-0.8,3.4-0.6c0.9,0.1,1.8,0.4,2.5,1c0.8,0.6,1.5,1.2,2.2,1.8
		c0,1.5,0,3,0,4.5s0,2.9,0,4.5C86,32.5,84.2,33.3,82.3,33.4z"/>
</g>
<g>
	<circle class="st0" cx="99.7" cy="13.8" r="3.6"/>
</g>
</svg>
